<svg width="21" height="20" viewBox="0 0 21 20" fill="none" xmlns="http://www.w3.org/2000/svg">
<path d="M18.6713 8.36789H18V8.33331H10.5V11.6666H15.2096C14.5225 13.6071 12.6763 15 10.5 15C7.73877 15 5.50002 12.7612 5.50002 9.99997C5.50002 7.23872 7.73877 4.99997 10.5 4.99997C11.7746 4.99997 12.9342 5.48081 13.8171 6.26622L16.1742 3.90914C14.6859 2.52206 12.695 1.66664 10.5 1.66664C5.89794 1.66664 2.16669 5.39789 2.16669 9.99997C2.16669 14.6021 5.89794 18.3333 10.5 18.3333C15.1021 18.3333 18.8334 14.6021 18.8334 9.99997C18.8334 9.44122 18.7759 8.89581 18.6713 8.36789Z" fill="#FFC107"/>
<path d="M3.1275 6.12122L5.86542 8.12914C6.60625 6.29497 8.40042 4.99997 10.5 4.99997C11.7746 4.99997 12.9342 5.48081 13.8171 6.26622L16.1742 3.90914C14.6858 2.52206 12.695 1.66664 10.5 1.66664C7.29917 1.66664 4.52334 3.47372 3.1275 6.12122Z" fill="#FF3D00"/>
<path d="M10.5 18.3333C12.6525 18.3333 14.6083 17.5095 16.0871 16.17L13.5079 13.9875C12.6431 14.6451 11.5864 15.0008 10.5 15C8.33249 15 6.49207 13.6179 5.79874 11.6891L3.08124 13.7829C4.4604 16.4816 7.26124 18.3333 10.5 18.3333Z" fill="#4CAF50"/>
<path d="M18.6713 8.36794H18V8.33336H10.5V11.6667H15.2096C14.8809 12.5902 14.2889 13.3972 13.5067 13.9879L13.5079 13.9871L16.0871 16.1696C15.9046 16.3354 18.8333 14.1667 18.8333 10C18.8333 9.44128 18.7758 8.89586 18.6713 8.36794Z" fill="#1976D2"/>
</svg>
