<svg width="40" height="40" viewBox="0 0 40 40" fill="none" xmlns="http://www.w3.org/2000/svg">
<g clip-path="url(#clip0_386_2802)">
<path fill-rule="evenodd" clip-rule="evenodd" d="M20 13.3333C20.4602 13.3333 20.8333 13.7064 20.8333 14.1667V25.8333C20.8333 26.2936 20.4602 26.6667 20 26.6667C19.5398 26.6667 19.1667 26.2936 19.1667 25.8333V14.1667C19.1667 13.7064 19.5398 13.3333 20 13.3333Z" fill="#4640DE"/>
<path fill-rule="evenodd" clip-rule="evenodd" d="M13.3333 20C13.3333 19.5398 13.7064 19.1667 14.1667 19.1667H25.8333C26.2936 19.1667 26.6667 19.5398 26.6667 20C26.6667 20.4602 26.2936 20.8333 25.8333 20.8333H14.1667C13.7064 20.8333 13.3333 20.4602 13.3333 20Z" fill="#4640DE"/>
</g>
<rect x="0.5" y="0.5" width="39" height="39" stroke="#D6DDEB"/>
<defs>
<clipPath id="clip0_386_2802">
<rect width="20" height="20" fill="white" transform="translate(10 10)"/>
</clipPath>
</defs>
</svg>
