<svg width="40" height="40" viewBox="0 0 40 40" fill="none" xmlns="http://www.w3.org/2000/svg">
<g clip-path="url(#clip0_386_2758)">
<path fill-rule="evenodd" clip-rule="evenodd" d="M11.8787 14.8787C12.4413 14.3161 13.2044 14 14 14H17C17.5523 14 18 14.4477 18 15C18 15.5523 17.5523 16 17 16H14C13.7348 16 13.4804 16.1054 13.2929 16.2929C13.1054 16.4804 13 16.7348 13 17V26C13 26.2652 13.1054 26.5196 13.2929 26.7071C13.4804 26.8946 13.7348 27 14 27H23C23.2652 27 23.5196 26.8946 23.7071 26.7071C23.8946 26.5196 24 26.2652 24 26V23C24 22.4477 24.4477 22 25 22C25.5523 22 26 22.4477 26 23V26C26 26.7957 25.6839 27.5587 25.1213 28.1213C24.5587 28.6839 23.7957 29 23 29H14C13.2044 29 12.4413 28.6839 11.8787 28.1213C11.3161 27.5587 11 26.7956 11 26V17C11 16.2044 11.3161 15.4413 11.8787 14.8787Z" fill="#F8F8FD"/>
<path fill-rule="evenodd" clip-rule="evenodd" d="M24.7929 10.7929C25.3783 10.2075 26.1722 9.87866 27 9.87866C27.8278 9.87866 28.6217 10.2075 29.2071 10.7929C29.7925 11.3782 30.1213 12.1722 30.1213 13C30.1213 13.8278 29.7925 14.6217 29.2071 15.2071L20.7071 23.7071C20.5196 23.8946 20.2652 24 20 24H17C16.4477 24 16 23.5523 16 23V20C16 19.7348 16.1054 19.4804 16.2929 19.2929L24.7929 10.7929ZM27 11.8787C26.7026 11.8787 26.4174 11.9968 26.2071 12.2071L18 20.4142V22H19.5858L27.7929 13.7929C28.0032 13.5826 28.1213 13.2974 28.1213 13C28.1213 12.7026 28.0032 12.4174 27.7929 12.2071C27.5826 11.9968 27.2974 11.8787 27 11.8787Z" fill="#F8F8FD"/>
<path fill-rule="evenodd" clip-rule="evenodd" d="M23.2929 12.2929C23.6834 11.9024 24.3166 11.9024 24.7071 12.2929L27.7071 15.2929C28.0976 15.6834 28.0976 16.3166 27.7071 16.7071C27.3166 17.0976 26.6834 17.0976 26.2929 16.7071L23.2929 13.7071C22.9024 13.3166 22.9024 12.6834 23.2929 12.2929Z" fill="#F8F8FD"/>
</g>
<rect x="0.5" y="0.5" width="39" height="39" stroke="#A8ADB7"/>
<defs>
<clipPath id="clip0_386_2758">
<rect width="24" height="24" fill="white" transform="translate(8 8)"/>
</clipPath>
</defs>
</svg>
