<svg width="40" height="40" viewBox="0 0 40 40" fill="none" xmlns="http://www.w3.org/2000/svg">
<g clip-path="url(#clip0_386_2791)">
<path fill-rule="evenodd" clip-rule="evenodd" d="M13.2322 15.7322C13.7011 15.2634 14.337 15 15 15H17.5C17.9602 15 18.3333 15.3731 18.3333 15.8333C18.3333 16.2936 17.9602 16.6667 17.5 16.6667H15C14.779 16.6667 14.567 16.7545 14.4107 16.9107C14.2545 17.067 14.1667 17.279 14.1667 17.5V25C14.1667 25.221 14.2545 25.433 14.4107 25.5893C14.567 25.7455 14.779 25.8333 15 25.8333H22.5C22.721 25.8333 22.933 25.7455 23.0893 25.5893C23.2455 25.433 23.3333 25.221 23.3333 25V22.5C23.3333 22.0398 23.7064 21.6667 24.1667 21.6667C24.6269 21.6667 25 22.0398 25 22.5V25C25 25.663 24.7366 26.2989 24.2678 26.7678C23.7989 27.2366 23.163 27.5 22.5 27.5H15C14.337 27.5 13.7011 27.2366 13.2322 26.7678C12.7634 26.2989 12.5 25.663 12.5 25V17.5C12.5 16.837 12.7634 16.2011 13.2322 15.7322Z" fill="#4640DE"/>
<path fill-rule="evenodd" clip-rule="evenodd" d="M23.9941 12.3274C24.4819 11.8396 25.1435 11.5656 25.8333 11.5656C26.5232 11.5656 27.1848 11.8396 27.6726 12.3274C28.1604 12.8152 28.4344 13.4768 28.4344 14.1667C28.4344 14.8565 28.1604 15.5181 27.6726 16.0059L20.5892 23.0892C20.433 23.2455 20.221 23.3333 20 23.3333H17.5C17.0398 23.3333 16.6667 22.9602 16.6667 22.5V20C16.6667 19.779 16.7545 19.567 16.9107 19.4107L23.9941 12.3274ZM25.8333 13.2322C25.5855 13.2322 25.3478 13.3307 25.1726 13.5059L18.3333 20.3452V21.6667H19.6548L26.4941 14.8274C26.6693 14.6522 26.7678 14.4145 26.7678 14.1667C26.7678 13.9188 26.6693 13.6811 26.4941 13.5059C26.3188 13.3307 26.0812 13.2322 25.8333 13.2322Z" fill="#4640DE"/>
<path fill-rule="evenodd" clip-rule="evenodd" d="M22.7441 13.5774C23.0695 13.252 23.5972 13.252 23.9226 13.5774L26.4226 16.0774C26.748 16.4028 26.748 16.9305 26.4226 17.2559C26.0972 17.5813 25.5695 17.5813 25.2441 17.2559L22.7441 14.7559C22.4186 14.4305 22.4186 13.9028 22.7441 13.5774Z" fill="#4640DE"/>
</g>
<rect x="0.5" y="0.5" width="39" height="39" stroke="#D6DDEB"/>
<defs>
<clipPath id="clip0_386_2791">
<rect width="20" height="20" fill="white" transform="translate(10 10)"/>
</clipPath>
</defs>
</svg>
